<svg xmlns="http://www.w3.org/2000/svg" xmlns:xlink="http://www.w3.org/1999/xlink" width="1920" zoomAndPan="magnify" viewBox="0 0 1440 809.999993" height="1080" preserveAspectRatio="xMidYMid meet" version="1.0"><defs><clipPath id="3b9ac0ade6"><path d="M 368.191406 52.773438 L 1072.171875 52.773438 L 1072.171875 756.753906 L 368.191406 756.753906 Z M 368.191406 52.773438 " clip-rule="nonzero"/></clipPath><clipPath id="a437b08786"><path d="M 494.425781 250.839844 L 946.074219 250.839844 L 946.074219 558.832031 L 494.425781 558.832031 Z M 494.425781 250.839844 " clip-rule="nonzero"/></clipPath></defs><g clip-path="url(#3b9ac0ade6)"><path fill="#17770f" d="M 720.179688 52.773438 C 525.78125 52.773438 368.191406 210.367188 368.191406 404.765625 C 368.191406 599.164062 525.78125 756.753906 720.179688 756.753906 C 914.578125 756.753906 1072.171875 599.164062 1072.171875 404.765625 C 1072.171875 210.367188 914.578125 52.773438 720.179688 52.773438 " fill-opacity="1" fill-rule="nonzero"/></g><g clip-path="url(#a437b08786)"><path fill="#ffffff" d="M 617.605469 415.101562 C 651.582031 415.101562 679.191406 387.488281 679.191406 353.503906 C 679.191406 319.523438 651.582031 291.90625 617.605469 291.90625 C 583.628906 291.90625 556.015625 319.523438 556.015625 353.503906 C 556.015625 387.488281 583.628906 415.101562 617.605469 415.101562 Z M 863.957031 291.90625 L 699.722656 291.90625 L 699.722656 435.636719 L 535.484375 435.636719 L 535.484375 250.839844 L 494.425781 250.839844 L 494.425781 558.832031 L 535.484375 558.832031 L 535.484375 497.234375 L 905.015625 497.234375 L 905.015625 558.832031 L 946.074219 558.832031 L 946.074219 374.039062 C 946.074219 328.660156 909.328125 291.90625 863.957031 291.90625 Z M 863.957031 291.90625 " fill-opacity="1" fill-rule="nonzero"/></g></svg>