<svg xmlns="http://www.w3.org/2000/svg" xmlns:xlink="http://www.w3.org/1999/xlink" width="1920" zoomAndPan="magnify" viewBox="0 0 1440 809.999993" height="1080" preserveAspectRatio="xMidYMid meet" version="1.0"><defs><clipPath id="4721b1fdf6"><path d="M 368.191406 52.773438 L 1072.171875 52.773438 L 1072.171875 756.753906 L 368.191406 756.753906 Z M 368.191406 52.773438 " clip-rule="nonzero"/></clipPath><clipPath id="91399c84e7"><path d="M 485 197 L 955 197 L 955 612.566406 L 485 612.566406 Z M 485 197 " clip-rule="nonzero"/></clipPath></defs><g clip-path="url(#4721b1fdf6)"><path fill="#17770f" d="M 720.179688 52.773438 C 525.78125 52.773438 368.191406 210.367188 368.191406 404.765625 C 368.191406 599.164062 525.78125 756.753906 720.179688 756.753906 C 914.578125 756.753906 1072.171875 599.164062 1072.171875 404.765625 C 1072.171875 210.367188 914.578125 52.773438 720.179688 52.773438 " fill-opacity="1" fill-rule="nonzero"/></g><g clip-path="url(#91399c84e7)"><path fill="#ffffff" d="M 875.878906 528.480469 C 877.886719 528.417969 879.867188 528.652344 881.835938 528.953125 C 886.625 529.679688 888.5 531.800781 888.917969 536.804688 C 889.457031 543.351562 888.914062 549.863281 888.300781 556.371094 C 887.898438 560.675781 887.480469 564.890625 888.761719 569.222656 C 890.191406 574.042969 887.625 579.765625 883.417969 582.535156 C 882.554688 583.101562 881.679688 583.65625 880.757812 584.109375 C 879.261719 584.84375 878.0625 586.382812 877.894531 588.089844 C 877.816406 588.890625 878.175781 589.796875 878.925781 590.097656 C 879.265625 590.230469 879.644531 590.226562 880.011719 590.222656 C 886.554688 590.128906 893.09375 590.152344 899.636719 590.152344 L 902.1875 590.152344 C 903.757812 590.152344 905.035156 588.878906 905.035156 587.308594 L 905.035156 587.09375 C 905.035156 586.417969 904.773438 585.78125 904.355469 585.25 C 903.535156 584.210938 903.386719 583.011719 903.902344 581.257812 C 905.21875 576.796875 905.085938 572.289062 904.972656 567.761719 C 904.746094 558.523438 905.742188 549.363281 906.542969 540.1875 C 906.699219 538.414062 906.738281 536.632812 907.375 534.921875 C 907.613281 534.28125 907.765625 533.65625 908.570312 533.914062 C 910.097656 534.398438 911.566406 533.886719 913.054688 533.761719 C 915.65625 533.539062 916.085938 533.917969 915.949219 536.5625 C 915.921875 537.113281 915.855469 537.660156 915.808594 538.207031 C 915.136719 550.578125 915.480469 562.960938 915.492188 575.339844 C 915.496094 578.273438 916.105469 581.207031 916.476562 584.140625 C 916.539062 584.625 916.726562 585.179688 916.695312 585.667969 C 916.664062 586.230469 916.351562 586.789062 916.300781 587.367188 C 916.242188 587.996094 916.339844 588.65625 916.699219 589.175781 C 917.277344 590.007812 918.382812 590.292969 919.394531 590.285156 C 923.609375 590.265625 927.816406 590.179688 932.03125 590.160156 C 933.632812 590.148438 934.839844 590.742188 935.078125 588.757812 C 935.300781 586.882812 935.195312 584.992188 935.089844 583.117188 C 935.054688 582.492188 935.015625 581.859375 934.777344 581.28125 C 934.34375 580.226562 933.09375 580.257812 932.667969 579.289062 C 932.359375 578.582031 932.667969 577.53125 932.742188 576.792969 C 933.460938 569.542969 934.257812 562.300781 934.910156 555.046875 C 935.484375 548.679688 935.945312 542.300781 936.347656 535.917969 C 936.414062 534.875 936.726562 534.679688 937.636719 534.628906 C 943.035156 534.347656 948.421875 533.722656 953.839844 534.140625 C 954.390625 534.183594 954.742188 533.914062 954.714844 533.539062 C 954.519531 530.945312 955.359375 528.386719 954.707031 525.757812 C 950.882812 510.246094 946.667969 494.832031 942.316406 479.46875 C 940.175781 471.914062 939.5 464.636719 941.675781 457.027344 C 942.957031 452.554688 943.664062 447.910156 944.222656 443.269531 C 945.335938 434.03125 944.210938 424.875 943.097656 415.722656 C 942.734375 412.738281 941.867188 409.75 943.957031 406.996094 C 944.449219 406.351562 944.292969 405.621094 944.019531 404.941406 C 943.152344 402.789062 942.121094 400.703125 941.039062 398.652344 C 936.734375 390.480469 933.445312 381.972656 931.65625 372.875 C 930.242188 365.675781 928.535156 358.535156 926.890625 351.378906 C 925.734375 346.351562 924.433594 341.410156 920.617188 337.519531 C 916.492188 333.3125 911.742188 331.273438 905.910156 332.761719 C 899.894531 334.292969 894.457031 336.957031 892.628906 343.464844 C 890.8125 349.941406 889.894531 356.628906 889.628906 363.375 C 889.5625 365.054688 889.8125 366.75 891.039062 367.988281 C 893.21875 370.195312 893.894531 372.980469 894.164062 375.867188 C 894.542969 379.917969 893.09375 381.234375 890.136719 381.558594 C 889.527344 381.625 888.925781 381.800781 888.316406 381.871094 C 884.347656 382.328125 880.984375 383.898438 878.226562 386.886719 C 875.609375 389.726562 873.136719 392.660156 870.824219 395.75 C 869.414062 397.636719 869.140625 399.53125 870.007812 401.730469 C 870.628906 403.320312 871.011719 405.003906 871.449219 406.660156 C 871.738281 407.75 871.648438 408.832031 871.207031 409.890625 C 870.113281 412.507812 868.660156 414.890625 866.851562 417.082031 C 865.242188 419.027344 863.261719 419.285156 861.09375 418.46875 C 858.925781 417.65625 857 416.558594 856.683594 413.835938 C 856.421875 411.570312 856.332031 409.3125 856.332031 407.042969 C 856.324219 394.585938 856.375 382.125 856.269531 369.667969 C 856.222656 364.171875 855.859375 358.683594 854.792969 353.261719 C 853.453125 346.441406 851.023438 339.941406 849.140625 333.285156 C 847.800781 328.542969 847.863281 328.394531 851.945312 325.753906 C 854.375 324.179688 854.773438 323.34375 853.96875 320.609375 C 849.898438 306.835938 844.375 293.625 838.683594 280.460938 C 835.84375 273.894531 831.371094 269.292969 824.992188 266.355469 C 823.371094 265.609375 821.789062 264.757812 820.117188 264.152344 C 816.191406 262.730469 812.277344 261.296875 808.441406 259.640625 C 805.375 258.3125 802.574219 256.621094 800.304688 254.148438 C 796.675781 250.199219 797.273438 248.089844 800.160156 245.339844 C 802.058594 243.527344 802.84375 241.273438 802.699219 238.628906 C 802.589844 236.691406 802 234.84375 801.851562 232.929688 C 801.28125 225.664062 800.449219 218.429688 799.335938 211.226562 C 798.894531 208.378906 797.683594 206.011719 794.992188 204.613281 C 789.75 201.886719 784.433594 199.382812 778.582031 198.179688 C 773.792969 197.199219 769.160156 196.949219 764.96875 200.054688 C 762.054688 202.214844 758.808594 203.527344 755.269531 204.355469 C 752.289062 205.050781 750.074219 206.898438 749.484375 210.109375 C 749.1875 211.726562 749.089844 213.382812 748.96875 215.027344 C 748.933594 215.523438 748.605469 216.292969 749.242188 216.488281 C 749.929688 216.703125 749.890625 215.816406 750.191406 215.425781 C 750.304688 215.28125 750.40625 215.132812 750.511719 214.984375 C 750.574219 215.152344 750.683594 215.316406 750.695312 215.484375 C 750.953125 220.09375 752.3125 224.527344 752.933594 229.082031 C 753.203125 231.070312 752.894531 232.457031 751.226562 233.671875 C 749.871094 234.65625 749.59375 236.539062 750.625 237.859375 C 752.398438 240.132812 754.390625 242.246094 754.554688 245.359375 C 754.570312 245.671875 754.796875 246.023438 755.019531 246.265625 C 756.339844 247.710938 756.554688 249.339844 756.246094 251.238281 C 755.902344 253.328125 756.722656 254.164062 758.808594 254.300781 C 759.289062 254.332031 759.773438 254.339844 760.253906 254.328125 C 761.003906 254.304688 761.3125 254.628906 761.445312 255.394531 C 761.929688 258.191406 760.683594 260.621094 758.066406 261.621094 C 753.644531 263.3125 749.226562 265.003906 744.765625 266.585938 C 739.636719 268.40625 736.324219 271.988281 734.125 276.859375 C 728.773438 288.703125 724.734375 300.996094 721.488281 313.558594 C 720.375 317.867188 719.453125 322.234375 723.007812 326.011719 C 723.050781 326.0625 723.074219 326.132812 723.113281 326.191406 C 723.488281 326.78125 723.507812 327.328125 722.660156 327.296875 C 720.699219 327.21875 720.367188 328.519531 720.007812 330.03125 C 716.585938 344.308594 713.703125 358.707031 710.613281 373.054688 C 710.121094 375.332031 709.703125 377.628906 709.269531 379.921875 C 709.105469 380.78125 708.703125 381.601562 707.898438 381.808594 C 707.25 381.972656 706.960938 381.097656 706.640625 380.605469 C 704.667969 377.539062 702.851562 374.394531 701.875 370.839844 C 696.964844 352.917969 691.605469 335.132812 685.421875 317.605469 C 682.5 309.328125 679.777344 300.980469 675.921875 293.066406 C 674.574219 290.289062 672.546875 288.273438 669.824219 286.871094 C 666.574219 285.191406 663.136719 284.023438 659.59375 283.1875 C 658.5 282.925781 657.789062 282.359375 657.105469 281.539062 C 655.820312 279.992188 655.714844 278.277344 656.261719 276.488281 C 657.46875 272.5625 657.566406 268.640625 656.605469 264.640625 C 655.941406 261.875 655.371094 259.082031 654.914062 256.269531 C 653.527344 247.738281 651.027344 239.550781 647.429688 231.703125 C 644.558594 225.4375 640.277344 220.824219 633.109375 219.65625 C 631.957031 219.46875 630.785156 219.359375 629.667969 219.042969 C 626.871094 218.253906 624.453125 218.90625 622.066406 220.480469 C 618.789062 222.648438 615.652344 224.964844 612.757812 227.632812 C 609.925781 230.246094 608.378906 233.425781 608.269531 237.253906 C 608.007812 246.195312 607.457031 255.136719 607.859375 264.082031 C 608.007812 267.378906 608.332031 270.667969 608.261719 273.976562 C 608.125 280.238281 606.109375 283.074219 600.269531 285.289062 C 597.566406 286.3125 594.703125 286.777344 591.984375 287.703125 C 585.992188 289.746094 581.78125 293.320312 580.910156 300.109375 C 580.160156 305.96875 579.394531 311.824219 578.769531 317.699219 C 577.835938 326.453125 577.023438 335.21875 576.484375 344 C 575.796875 355.132812 575.734375 366.289062 575.589844 377.441406 C 575.523438 382.304688 575.011719 387.148438 574.144531 391.9375 C 572.765625 399.570312 572.296875 407.25 572.726562 414.988281 C 572.855469 417.261719 573.496094 419.242188 575.449219 420.726562 C 578.519531 423.058594 578.738281 423.753906 577.273438 427.347656 C 576.261719 429.832031 575.816406 432.316406 576.011719 434.976562 C 576.152344 436.910156 576.007812 438.90625 574.96875 440.570312 C 572.832031 443.984375 570.128906 446.910156 566.699219 449.085938 C 564.433594 450.527344 562.152344 450.445312 559.960938 448.878906 C 559.179688 448.320312 558.34375 447.792969 557.703125 447.089844 C 554.234375 443.285156 549.914062 441.691406 544.820312 441.695312 C 541.488281 441.695312 539.15625 439.773438 537.601562 436.957031 C 535.769531 433.625 536.800781 430.71875 540.332031 429.398438 C 542.371094 428.636719 543.425781 427.269531 543.8125 425.210938 C 544.863281 419.574219 545.25 413.886719 545.011719 408.167969 C 544.902344 405.5625 543.933594 403.214844 542.089844 401.300781 C 537.730469 396.773438 532.800781 393.351562 526.558594 391.660156 C 523.277344 390.769531 520.746094 391.640625 518.09375 392.910156 C 517.738281 393.082031 517.394531 393.277344 517.066406 393.5 C 512.980469 396.273438 509.476562 399.714844 506.011719 403.175781 C 503.59375 405.589844 502.671875 408.632812 502.839844 412.027344 C 502.929688 413.824219 503.3125 415.558594 503.734375 417.300781 C 505.429688 424.285156 507.425781 431.0625 514.707031 434.46875 C 514.78125 434.5 514.855469 434.546875 514.914062 434.601562 C 516.410156 435.890625 516.902344 437.5625 516.550781 439.398438 C 516.25 440.96875 514.667969 440.75 513.589844 441.210938 C 513.40625 441.289062 513.1875 441.292969 512.984375 441.324219 C 510.222656 441.726562 507.652344 442.542969 505.53125 444.496094 C 504.441406 445.496094 503.035156 445.980469 501.613281 446.210938 C 499.019531 446.632812 497.558594 448.152344 496.613281 450.535156 C 494.035156 457.035156 491.269531 463.457031 488.046875 469.675781 C 487.070312 471.558594 486.355469 473.574219 485.53125 475.53125 C 484.730469 477.425781 484.851562 479.292969 485.808594 481.09375 C 487.789062 484.832031 490.265625 488.183594 493.535156 490.914062 C 496.058594 493.019531 498.769531 494.316406 502.21875 493.792969 C 504.429688 493.457031 504.859375 493.964844 505 496.230469 C 505.082031 497.535156 505.074219 498.84375 505.054688 500.152344 C 504.960938 506.964844 505.035156 513.777344 504.675781 520.585938 C 503.96875 534 506.40625 547.175781 507.726562 560.433594 C 508.105469 564.222656 508.292969 567.96875 506.5625 571.546875 C 504.820312 575.148438 504.753906 578.964844 505.265625 582.839844 C 505.808594 586.953125 507.414062 590.777344 508.476562 594.746094 C 509.757812 599.519531 511.359375 604.238281 510.40625 609.300781 C 510.234375 610.222656 510.667969 611.035156 510.808594 611.902344 L 558.550781 611.902344 C 559.703125 611.902344 561.542969 612.554688 561.851562 610.746094 C 561.921875 610.339844 561.875 609.921875 561.761719 609.523438 C 561.316406 607.984375 561.117188 607.109375 560.054688 605.972656 C 558.132812 603.917969 556.011719 601.902344 553.085938 601.832031 C 547.90625 601.710938 543.453125 595.246094 545.199219 590.386719 C 545.558594 589.378906 546.160156 588.578125 547.234375 588.214844 C 548.144531 587.90625 549.03125 587.542969 549.933594 587.222656 C 551.6875 586.597656 552.464844 585.445312 552.542969 583.503906 C 553.53125 559.023438 553.441406 534.53125 553.796875 510.042969 C 553.96875 498.144531 554.304688 486.246094 554.589844 474.347656 C 554.660156 471.417969 555.203125 471.011719 557.925781 469.90625 C 567.332031 466.089844 575.976562 461.175781 581.824219 452.449219 C 582.859375 450.910156 584.019531 449.460938 585.136719 447.976562 C 585.847656 447.03125 586.796875 446.660156 587.996094 446.65625 C 591.269531 446.640625 592.199219 447.5625 591.726562 450.761719 C 590.859375 456.605469 589.054688 462.242188 587.816406 468.003906 C 586.96875 471.96875 586.140625 475.933594 585.964844 480 C 585.914062 481.195312 585.683594 482.398438 585.003906 483.328125 C 582.679688 486.507812 582.648438 490.132812 582.78125 493.789062 C 582.949219 498.625 582.984375 498.625 589.003906 498.757812 C 593.683594 499.042969 599.582031 499.414062 605.484375 499.75 C 606.4375 499.804688 607.402344 499.6875 608.363281 499.699219 C 610.285156 499.714844 610.707031 500.152344 610.472656 502.050781 C 610.003906 505.867188 609.558594 509.6875 608.960938 513.484375 C 607.871094 520.429688 608.382812 527.34375 609.246094 534.246094 C 610.046875 540.660156 610.613281 547.09375 611.09375 553.535156 C 611.773438 562.648438 612.535156 571.761719 614.242188 580.742188 C 615.445312 587.0625 615.324219 593.03125 611.367188 598.453125 C 608.964844 601.742188 608.800781 605.824219 608.867188 609.769531 C 608.886719 610.984375 609.882812 611.957031 611.097656 611.949219 C 615.867188 611.925781 620.636719 611.90625 625.40625 611.90625 C 629.949219 611.90625 634.492188 611.902344 639.039062 611.902344 C 639.804688 611.902344 640.570312 611.902344 641.335938 611.902344 L 663.160156 611.902344 C 665.511719 611.902344 666.980469 612.027344 667.652344 609.414062 C 668.039062 607.90625 667.871094 606.234375 667.144531 604.851562 C 666.179688 603.003906 664.636719 603.710938 663.132812 602.738281 C 661.914062 601.949219 661.105469 600.75 660.640625 599.390625 C 659.046875 594.761719 658.6875 590.0625 659.601562 585.195312 C 662.472656 569.886719 665.960938 554.707031 669.152344 539.46875 C 671.386719 528.800781 671.507812 518.207031 669.851562 507.511719 C 669.460938 505 669.289062 502.445312 668.722656 499.980469 C 668.386719 498.523438 668.890625 498.207031 670.085938 498.007812 C 674.28125 497.3125 678.480469 496.628906 682.660156 495.835938 C 686.96875 495.019531 691.277344 494.148438 695.40625 492.601562 C 698.503906 491.4375 699.617188 490.042969 699.492188 486.722656 C 699.261719 480.511719 697.789062 474.507812 695.914062 468.609375 C 688.285156 444.636719 680.492188 420.71875 672.445312 396.886719 C 670.875 392.238281 670 387.671875 671.144531 382.769531 C 671.714844 380.316406 670.785156 377.871094 669.988281 375.527344 C 666.976562 366.6875 664.359375 357.742188 662.910156 348.5 C 661.746094 341.054688 661.167969 333.605469 663.460938 326.238281 C 663.582031 325.855469 663.242188 325.125 663.949219 325.132812 C 664.425781 325.136719 664.316406 325.78125 664.4375 326.152344 C 667.308594 334.949219 670.148438 343.753906 673.046875 352.542969 C 675.535156 360.089844 678.085938 367.621094 680.867188 375.074219 C 682.1875 378.617188 684.019531 381.8125 686.816406 384.351562 C 691.683594 388.765625 694.792969 394.261719 696.980469 400.355469 C 698.28125 403.984375 699.777344 407.511719 701.910156 410.742188 C 704.125 414.101562 704.253906 417.992188 704.75 421.796875 C 705.25 425.628906 707.945312 427.171875 711.523438 425.710938 C 713.957031 424.714844 716.238281 423.464844 717.992188 421.425781 C 719.226562 419.996094 720.871094 419.109375 722.40625 418.066406 C 724.632812 416.546875 724.945312 415.574219 724.242188 413.011719 C 724.003906 412.15625 723.769531 411.277344 723.707031 410.398438 C 723.476562 407.078125 722.417969 404.140625 720.234375 401.558594 C 718.714844 399.753906 718.453125 397.441406 718.28125 395.160156 C 717.929688 390.453125 718.285156 385.78125 721.359375 382.027344 C 730.390625 371.007812 734.523438 357.789062 738.664062 344.542969 C 740.300781 339.308594 741.988281 334.089844 743.6875 328.878906 C 744.046875 327.78125 744.363281 326.625 745.378906 325.878906 C 745.761719 325.597656 746.128906 325.082031 746.601562 325.238281 C 747.304688 325.472656 746.867188 326.175781 746.957031 326.667969 C 747.003906 326.933594 746.964844 327.21875 746.964844 327.023438 C 746.765625 329.367188 747.582031 331.082031 747.839844 332.894531 C 748.675781 338.761719 748.113281 344.578125 747.605469 350.394531 C 747.007812 357.222656 747.414062 363.984375 748.367188 370.75 C 749.617188 379.59375 750.996094 388.429688 751.308594 397.375 C 751.519531 403.324219 750.605469 409.175781 749.316406 414.949219 C 747.054688 425.089844 747.660156 435.164062 749.628906 445.234375 C 751.539062 455.03125 752.558594 464.929688 753.152344 474.886719 C 753.703125 484.152344 754.433594 493.410156 755.042969 502.675781 C 755.667969 512.144531 756.230469 521.621094 756.851562 531.089844 C 757.242188 537.125 757.632812 543.160156 758.140625 549.183594 C 758.28125 550.835938 759.757812 552.027344 759.996094 553.78125 C 760.371094 556.5625 761.042969 559.308594 761.644531 562.054688 C 762.042969 563.875 761.304688 564.953125 759.625 565.539062 C 758.914062 565.789062 758.210938 566.066406 757.515625 566.363281 C 755.820312 567.078125 755.226562 568.433594 755.363281 570.183594 C 755.410156 570.796875 755.441406 571.441406 755.640625 572.015625 C 756.351562 574.050781 756.746094 575.933594 755.171875 577.394531 C 754.328125 578.179688 753.226562 579.636719 752.804688 580.710938 C 752.152344 582.367188 751.574219 584.058594 750.914062 585.714844 C 749.941406 588.167969 748.101562 589.675781 745.507812 589.910156 C 740.914062 590.324219 737.390625 594.269531 737.179688 598.914062 C 737 602.914062 740.878906 606.117188 744.691406 606.117188 L 775.464844 606.117188 C 778.171875 606.117188 780.367188 603.921875 780.367188 601.214844 L 780.367188 596.148438 C 780.367188 594.90625 779.90625 593.75 779.261719 592.691406 C 778.90625 592.113281 778.976562 591.296875 779.378906 590.109375 C 780.109375 587.949219 781.367188 586.042969 782.480469 584.078125 C 784.390625 580.714844 785.332031 577.167969 785.332031 573.269531 C 785.335938 555.304688 784.503906 537.355469 784.316406 519.394531 C 784.273438 515.195312 784.234375 511.003906 784.328125 506.804688 C 784.410156 503.058594 785.265625 499.554688 787.167969 496.394531 C 790.472656 490.898438 791.554688 484.957031 791.527344 478.644531 C 791.492188 469.210938 791.246094 459.789062 790.789062 450.371094 C 790.707031 448.671875 792.738281 446.828125 794.429688 447.042969 C 794.957031 447.109375 795.039062 447.472656 795.167969 447.875 C 800.148438 463.046875 805.140625 478.214844 810.113281 493.390625 C 811.566406 497.820312 812.824219 502.316406 814.417969 506.691406 C 817.09375 514.039062 816.714844 521.386719 814.875 528.792969 C 812.640625 537.796875 812.722656 546.90625 813.625 556.058594 C 814.167969 561.585938 814.6875 567.109375 814.101562 572.675781 C 813.730469 576.210938 814.609375 579.761719 816.535156 582.746094 C 817.648438 584.46875 818.785156 586.1875 819.808594 587.96875 C 820.492188 589.164062 819.933594 590.210938 819.660156 591.429688 C 819.355469 592.777344 819.183594 594.152344 819.140625 595.53125 C 819.011719 599.570312 819.457031 605.8125 824.742188 605.8125 L 846.003906 605.8125 C 848.953125 605.8125 851.371094 603.429688 851.367188 600.480469 C 851.367188 598.121094 851.558594 595.699219 851.242188 593.355469 C 850.871094 590.621094 849.277344 588.953125 848.226562 586.546875 C 847.429688 584.714844 846.859375 582.820312 846.375 580.890625 C 845.945312 579.179688 845.1875 577.679688 843.714844 576.613281 C 842.40625 575.664062 841.992188 574.363281 842.238281 572.800781 C 843.039062 567.710938 843.730469 562.628906 843.558594 557.433594 C 843.125 544.371094 842.710938 531.304688 842 518.25 C 841.550781 509.941406 841.1875 501.625 840.597656 493.324219 C 839.949219 484.207031 839.113281 475.097656 838.3125 465.992188 C 837.609375 458.050781 836.832031 450.113281 836.105469 442.171875 C 835.773438 438.546875 835.570312 434.902344 835.15625 431.285156 C 834.664062 427 835.222656 422.773438 835.601562 418.53125 C 835.710938 417.316406 837.734375 415.484375 838.929688 415.339844 C 839.515625 415.273438 839.832031 415.601562 840.09375 416.015625 C 840.648438 416.882812 841.296875 417.71875 841.695312 418.652344 C 843.1875 422.152344 846.238281 423.195312 849.582031 423.8125 C 849.84375 423.863281 850.222656 423.925781 850.378906 423.792969 C 852.199219 422.199219 853.003906 423.820312 854.152344 424.835938 C 859.441406 429.503906 865.636719 430.589844 871.117188 426.921875 C 872.652344 425.894531 873.734375 424.507812 874.640625 422.953125 C 876.402344 419.925781 878.101562 416.863281 879.882812 413.851562 C 881.296875 411.46875 881.824219 411.53125 883.207031 414.015625 C 884.949219 417.148438 884.960938 420.621094 885.171875 424.035156 C 885.671875 432.078125 883.992188 439.890625 882.574219 447.734375 C 879.585938 464.273438 874.078125 480.097656 868.992188 496.042969 C 867.875 499.539062 867.402344 503.203125 867.4375 506.875 C 867.476562 510.996094 866.800781 514.984375 865.015625 518.753906 C 863.976562 520.941406 863.753906 523.234375 864.167969 525.601562 C 864.539062 527.71875 865.46875 528.597656 867.628906 528.617188 C 870.378906 528.648438 873.128906 528.566406 875.878906 528.480469 Z M 928.15625 424.453125 C 928.179688 424.386719 928.183594 424.316406 928.203125 424.25 C 928.636719 422.820312 929.410156 421.144531 930.753906 421.085938 C 931.613281 421.046875 931.539062 423.152344 931.746094 424.289062 C 932.199219 426.734375 931.957031 429.230469 931.964844 431.707031 C 931.847656 434.179688 931.738281 436.65625 931.605469 439.125 C 931.59375 439.375 931.449219 439.621094 931.367188 439.867188 C 931.238281 439.722656 931.078125 439.597656 930.980469 439.4375 C 928.183594 434.792969 926.09375 430.011719 928.15625 424.453125 Z M 531.980469 600.753906 C 531.835938 601.90625 531.300781 602.332031 530.191406 602.089844 C 528.175781 601.648438 526.378906 600.871094 525.542969 598.792969 C 524.753906 596.839844 525.34375 595.175781 526.75 593.726562 C 527.660156 592.789062 528.550781 591.835938 529.480469 590.917969 C 529.851562 590.554688 530.160156 589.953125 530.824219 590.160156 C 531.570312 590.394531 531.507812 591.117188 531.625 591.703125 C 531.953125 593.332031 531.8125 594.992188 531.875 596.636719 C 531.867188 598.011719 532.15625 599.367188 531.980469 600.753906 Z M 598.101562 378.339844 C 595.613281 383.5625 596.015625 389.199219 596.75 394.757812 C 597.449219 400.054688 597.117188 405.332031 596.558594 410.597656 C 596.070312 415.238281 595.492188 419.875 594.574219 424.460938 C 594.121094 426.722656 593.53125 426.917969 591.617188 425.535156 C 590.566406 424.777344 590.003906 423.71875 589.542969 422.542969 C 587.332031 416.90625 586.867188 411.136719 587.753906 405.144531 C 589.589844 392.789062 591.203125 380.394531 592.992188 368.03125 C 594.351562 358.65625 595.441406 349.242188 597.128906 339.917969 C 597.265625 339.175781 597.136719 337.972656 598.097656 337.878906 C 599.128906 337.777344 599.703125 338.703125 600.050781 339.695312 C 600.925781 342.175781 601.480469 344.726562 601.582031 347.339844 C 601.691406 350.292969 601.605469 353.253906 601.605469 356.210938 C 601.898438 363.804688 601.464844 371.277344 598.101562 378.339844 Z M 647.847656 586.046875 C 647.613281 588.933594 647.050781 591.738281 645.796875 594.390625 C 644.054688 598.070312 641.839844 601.449219 639.5 604.765625 C 638.894531 605.621094 638.34375 605.765625 637.273438 605.410156 C 632.503906 603.820312 630.21875 600.425781 629.285156 595.632812 C 627.257812 585.226562 627.058594 574.792969 627.800781 564.234375 C 628.664062 551.949219 631.070312 539.859375 632.023438 527.597656 C 632.527344 521.082031 632.308594 514.535156 631.992188 508.003906 C 631.859375 505.257812 631.683594 502.511719 631.429688 499.773438 C 631.324219 498.675781 631.65625 498.378906 632.734375 498.296875 C 636.566406 498.003906 640.402344 497.664062 644.214844 497.195312 C 645.472656 497.039062 645.859375 497.488281 646.214844 498.558594 C 647.757812 503.210938 647.113281 508.785156 646.714844 513.582031 C 646.472656 516.515625 646.203125 519.453125 645.984375 522.390625 C 645.800781 524.886719 645.648438 527.386719 645.574219 529.890625 C 645.394531 536.140625 645.414062 542.5625 647.183594 548.617188 C 647.824219 550.800781 648.195312 553.042969 648.238281 555.316406 C 648.429688 565.5625 648.675781 575.8125 647.847656 586.046875 Z M 842.179688 400.179688 C 841.066406 402.152344 840.0625 402.289062 838.1875 400.90625 C 837.109375 400.113281 836.351562 399.070312 835.6875 397.929688 C 833.601562 394.363281 832.699219 390.453125 832.195312 386.398438 C 831.230469 378.558594 829.941406 370.753906 829.246094 362.890625 C 828.570312 355.292969 828.472656 347.644531 828.121094 340.015625 C 828.09375 340.015625 828.066406 340.015625 828.042969 340.015625 C 828.042969 337.609375 828.046875 335.199219 828.039062 332.792969 C 828.035156 331.382812 828.617188 331.289062 829.628906 332.050781 C 831.582031 333.515625 833.039062 335.214844 832.847656 337.890625 C 832.453125 343.441406 834.027344 348.539062 836 353.683594 C 839.328125 362.34375 841.371094 371.390625 842.710938 380.578125 C 843.355469 385.003906 843.882812 389.4375 843.945312 393.917969 C 843.976562 396.191406 843.269531 398.246094 842.179688 400.179688 Z M 842.179688 400.179688 " fill-opacity="1" fill-rule="nonzero"/></g></svg>