<svg xmlns="http://www.w3.org/2000/svg" xmlns:xlink="http://www.w3.org/1999/xlink" width="1920" zoomAndPan="magnify" viewBox="0 0 1440 809.999993" height="1080" preserveAspectRatio="xMidYMid meet" version="1.0"><defs><clipPath id="a6715576e6"><path d="M 368.191406 52.773438 L 1072.171875 52.773438 L 1072.171875 756.753906 L 368.191406 756.753906 Z M 368.191406 52.773438 " clip-rule="nonzero"/></clipPath><clipPath id="073fa42c96"><path d="M 474.210938 154.554688 L 967.558594 154.554688 L 967.558594 623.234375 L 474.210938 623.234375 Z M 474.210938 154.554688 " clip-rule="nonzero"/></clipPath></defs><g clip-path="url(#a6715576e6)"><path fill="#17770f" d="M 720.179688 52.773438 C 525.78125 52.773438 368.191406 210.367188 368.191406 404.765625 C 368.191406 599.164062 525.78125 756.753906 720.179688 756.753906 C 914.578125 756.753906 1072.171875 599.164062 1072.171875 404.765625 C 1072.171875 210.367188 914.578125 52.773438 720.179688 52.773438 " fill-opacity="1" fill-rule="nonzero"/></g><g clip-path="url(#073fa42c96)"><path fill="#ffffff" d="M 728.308594 159.144531 L 797.925781 300.097656 C 798.988281 302.5625 801.460938 304.324219 804.289062 304.675781 L 960.136719 327.230469 C 966.851562 328.285156 969.679688 336.742188 964.730469 341.324219 L 851.996094 450.914062 C 849.875 452.675781 849.167969 455.492188 849.523438 458.3125 L 876.027344 613.355469 C 877.089844 620.050781 870.019531 625.339844 864.011719 622.167969 L 724.417969 548.871094 C 721.945312 547.464844 719.117188 547.464844 716.644531 548.871094 L 577.050781 622.167969 C 571.042969 625.339844 563.976562 620.050781 565.035156 613.355469 L 591.539062 458.3125 C 591.894531 455.492188 591.1875 453.027344 589.066406 450.914062 L 476.6875 341.324219 C 471.738281 336.390625 474.566406 328.285156 481.28125 327.230469 L 637.128906 304.675781 C 639.957031 304.324219 642.078125 302.5625 643.492188 300.097656 L 713.109375 159.144531 C 716.292969 153.15625 725.125 153.15625 728.308594 159.144531 Z M 728.308594 159.144531 " fill-opacity="1" fill-rule="nonzero"/></g></svg>